<svg width="156" height="156" viewBox="0 0 156 156" fill="none" xmlns="http://www.w3.org/2000/svg">
<rect width="156" height="156" fill="#56433D"/>
<path d="M106.104 97.5062C106.104 110.206 97.7745 120.826 86.4145 123.956C68.4345 128.916 50.7745 115.816 50.7445 97.1663C50.7245 85.1663 50.7245 73.1663 50.7145 61.1663H37.3545C37.2745 72.9263 37.1645 84.6862 37.0045 96.4362C36.6445 122.566 57.9445 141.496 83.5645 139.106C101.334 137.446 112.455 129.276 116.725 113.386C118.165 108.036 118.685 102.296 118.695 96.7262C118.725 84.8663 118.745 73.0162 118.755 61.1562H106.075C106.095 73.2863 106.104 85.3962 106.104 97.5062Z" fill="white"/>
<path d="M74.9652 59.7964C76.7552 61.5764 79.0052 61.5964 80.7852 59.8264C86.7452 53.8764 92.7152 47.9564 98.6052 41.9464C102.085 38.4064 103.335 34.0364 102.535 29.1764C101.065 20.2464 91.9552 14.8964 83.3852 17.8464C81.3052 18.5564 79.4952 19.7264 77.8852 21.2464C77.6952 21.0764 77.5252 20.9364 77.3652 20.7864C73.4352 17.3964 68.9152 16.2064 63.8952 17.5264C52.8652 20.4164 49.2652 33.9764 57.3252 42.1364C63.1852 48.0464 69.0852 53.9164 74.9652 59.7964Z" fill="#D05E58"/>
</svg>
